<?xml version="1.0" standalone="no"?><!DOCTYPE svg PUBLIC "-//W3C//DTD SVG 1.1//EN" "http://www.w3.org/Graphics/SVG/1.1/DTD/svg11.dtd"><svg t="1592816959209" class="icon" viewBox="0 0 1024 1024" version="1.1" xmlns="http://www.w3.org/2000/svg" p-id="8401" width="16" height="16" xmlns:xlink="http://www.w3.org/1999/xlink"><defs><style type="text/css"></style></defs><path d="M251.69 195.78m-19.65 0a19.65 19.65 0 1 0 39.3 0 19.65 19.65 0 1 0-39.3 0Z" p-id="8402" fill="#bfbfbf"></path><path d="M915.84 672.77c-0.61-0.83-1.3-1.59-2.05-2.29 0 0-17.89-16.45-46.4-42.76 0.46-15.66-5.5-34.17-17.98-55.95-27.06-47.22-65.24-106.85-120.74-149.2-42.25-32.24-89.06-50.1-139.85-53.53-0.33-0.37-0.67-0.73-1.04-1.08-3.66-3.44-7.26-6.83-10.81-10.17-26.7-25.15-53.6-41.18-79.61-56.69-48.18-28.72-93.68-55.84-136.13-140.09-16.12-34.65-40.41-59.37-70.25-71.51-25.81-10.5-54.9-11.18-81.92-1.92-42.4 14.53-68.74 49.12-66.17 84.85-10.76 8.86-31.78 26.73-51.46 46.55-4.18 4.21-5.73 10.37-3.96 16.03s6.47 9.87 12.29 10.96c3.5 0.7 85.74 18.42 80.08 135.48-4.7 101.68-6.5 166.84 14.67 222.87 21.24 56.21 64.03 100.27 152.6 157.14 37.88 24.32 78.41 41.31 120.57 50.59l-55.95 98.79-81.52-0.43c-8.79-0.03-16.04 7.08-16.08 15.92-0.05 8.84 7.08 16.04 15.92 16.08l90.9 0.48h0.08c5.76 0 11.08-3.1 13.92-8.12l66.26-117.01c14.48 1.76 29.1 2.64 43.8 2.64 8.12 0 16.26-0.27 24.42-0.81l63.8 91.14-69.68-0.33h-0.08c-8.8 0-15.96 7.11-16 15.92-0.04 8.84 7.09 16.03 15.92 16.08l100.59 0.48h0.08c5.95 0 11.41-3.3 14.17-8.58a16.01 16.01 0 0 0-1.07-16.6l-71.58-102.25c50.99-8.33 83.55-24.3 85.08-25.07 0.54-0.27 1.07-0.57 1.58-0.9 0.67-0.43 67.73-43.25 137.46-31.62 3.03 0.65 20.09 4.17 39.12 5.05 32.23 1.47 52.75-5.22 62.69-20.47 16.74-25.64-7.65-58.78-15.67-69.67z m-11.12 52.19c-1.64 2.52-10.86 7.01-34.04 6.01-17.81-0.77-34.3-4.39-34.45-4.43-0.27-0.06-0.54-0.11-0.81-0.16-78.09-13.23-150.18 29.74-159.64 35.66-5.34 2.49-42.56 19.13-96.19 24.6-33.66 3.43-67.14 1.86-99.54-4.67-40.42-8.15-79.33-24.11-115.65-47.43-82.17-52.76-121.41-92.45-139.96-141.53-18.82-49.79-17.17-111.64-12.73-208.02 0.13 0.01 0.26 0.02 0.39 0.02 0.53 0 1.07-0.05 1.61-0.16 33.05-6.75 62.85-29.71 64.1-30.68a7.994 7.994 0 0 0 1.4-11.23 7.994 7.994 0 0 0-11.23-1.4c-0.27 0.21-27.07 20.85-55.9 27.29-0.06-8.97-0.6-18.44-1.87-28.14 29.15-13.62 68.64-33.76 69.08-33.99 3.94-2.01 5.5-6.83 3.49-10.76-2.01-3.94-6.83-5.5-10.76-3.49-0.41 0.21-36.28 18.5-64.63 31.89-6.16-28.38-19.33-57.3-45.07-80.1-10.35-9.17-20.9-15.64-30.03-20.14 19.91-18.33 37.43-32.23 37.66-32.41a16.01 16.01 0 0 0 5.67-16.14c-4.52-19.66 9.08-45.78 43.82-57.69 19.71-6.75 40.84-6.29 59.49 1.29 22.27 9.06 40.73 28.27 53.38 55.57 0.07 0.16 0.15 0.31 0.22 0.46 46.67 92.74 98.41 123.58 148.44 153.41 21.16 12.61 41.35 24.66 61.32 41.25-13.11 1.29-26.46 3.45-40.03 6.51-8.62 1.94-14.03 10.51-12.09 19.13 1.94 8.62 10.51 14.04 19.13 12.09 40.44-9.12 78.72-9.53 113.76-1.23 30.4 7.2 59.4 21.22 86.2 41.67 32.71 24.96 59.19 57.05 80.73 88.63-27.45-23.9-60.05-47.9-91.83-67.36-37.36-22.88-92.43-51.1-142.64-55.61a4.995 4.995 0 0 0-5.43 4.53 5 5 0 0 0 4.53 5.43c88.12 7.91 202.65 92.59 254.14 144.11 0.54 0.54 1.17 0.91 1.84 1.16 3.33 5.52 6.5 10.93 9.54 16.2-77.63-41.27-233.41-119.12-306.35-149.31a4.995 4.995 0 0 0-6.53 2.71 4.995 4.995 0 0 0 2.71 6.53C587.01 476.9 756.9 562.2 828.43 600.87c1.92 4.23 3.47 8.22 4.6 11.89C679.8 594.99 552.7 509.05 504.12 472a5.002 5.002 0 0 0-7.01 0.94 5.011 5.011 0 0 0 0.94 7.01c49.6 37.82 179.95 125.91 337.12 143.11 0.43 4.57-0.08 8.36-1.62 11.17-2.62 4.79-8.6 7.86-15.63 9.86-84.65 0.14-156.2-24.98-202.08-46.66-54.82-25.9-101.83-61.36-119.78-90.35a4.999 4.999 0 0 0-8.5 5.26c19.18 30.98 66.7 67.05 124.01 94.12 37.03 17.5 90.47 37.2 154.01 44.6-16.56 2.99-59.29 8.48-111.4-1.79-36.27-7.14-69.97-20.59-100.16-39.97-37.45-24.04-69.77-57.46-96.06-99.32-4.7-7.48-14.58-9.74-22.06-5.04-7.48 4.7-9.74 14.58-5.04 22.06 28.81 45.88 64.43 82.63 105.87 109.23 33.59 21.56 71.02 36.52 111.26 44.44 24.88 4.9 47.85 6.54 67.47 6.54 37.11 0 62.23-5.88 65.64-6.73 1.21-0.19 4.8-0.37 7.69-0.51 17.48-0.86 47.99-2.37 65.65-20.66 19.5 17.98 32.67 30.11 36.51 33.64 14.92 20.62 15.03 30.09 13.77 32.01z" p-id="8403" fill="#bfbfbf"></path><path d="M367.04 494.88c0.44 0.02 0.9 0.03 1.38 0.03 8.52 0 23.05-3.68 34.01-25.6 1.98-3.95 0.37-8.76-3.58-10.73-3.95-1.98-8.76-0.37-10.73 3.58-3.94 7.89-10.65 17.2-20.32 16.74-9.69-0.46-19.97-10.49-25.57-24.98-1.59-4.12-6.23-6.17-10.35-4.57-4.12 1.59-6.17 6.23-4.57 10.35 7.97 20.61 23.57 34.42 39.73 35.18zM390.91 578.81c7.13-1.9 19.57-8.6 22.76-32.15 0.59-4.38-2.47-8.41-6.85-9-4.38-0.59-8.41 2.47-9 6.85-0.84 6.16-3.38 16.8-11.03 18.84-7.45 1.98-18.38-4.09-26.59-14.77-2.69-3.5-7.72-4.16-11.22-1.46-3.5 2.69-4.16 7.72-1.46 11.22 10.41 13.53 24.06 21.37 36.41 21.37 2.38 0 4.73-0.29 6.98-0.9zM309.85 549.83c0.59-4.38-2.47-8.41-6.85-9-4.38-0.58-8.41 2.47-9 6.85-0.84 6.16-3.38 16.8-11.03 18.84-7.44 1.98-18.38-4.09-26.59-14.77-2.69-3.5-7.72-4.16-11.22-1.46-3.5 2.69-4.16 7.72-1.46 11.22 10.41 13.53 24.06 21.37 36.41 21.37 2.39 0 4.73-0.29 6.99-0.9 7.12-1.9 19.56-8.6 22.75-32.15zM436.17 594.11a7 7 0 0 0-13.22 4.6c1.51 4.35 3.4 12.26-1.02 16.34-4.34 4-13.75 3.98-22.9-0.05a7.006 7.006 0 0 0-9.23 3.58 7.006 7.006 0 0 0 3.58 9.23c6.39 2.82 12.86 4.21 18.83 4.21 7.6 0 14.4-2.25 19.2-6.69 4.42-4.07 10.91-13.55 4.76-31.22zM470.53 634.89c-3.49 1.66-4.98 5.83-3.33 9.32 1.97 4.16 4.69 11.82 0.74 16.35-3.88 4.44-13.24 5.44-22.77 2.41a7.004 7.004 0 0 0-8.79 4.55 7 7 0 0 0 4.55 8.79c5.07 1.61 10.09 2.39 14.81 2.39 9.4 0 17.63-3.09 22.74-8.94 3.95-4.53 9.39-14.64 1.37-31.56-1.65-3.47-5.82-4.96-9.32-3.31zM531.05 685.18c1.14-5.05 1.14-14.95-11.77-24.42a6.513 6.513 0 0 0-9.09 1.39 6.513 6.513 0 0 0 1.39 9.09c2.98 2.19 7.82 6.53 6.79 11.07-1.04 4.57-7.32 8.81-15.28 10.32a6.495 6.495 0 0 0-5.17 7.6 6.5 6.5 0 0 0 6.38 5.29c0.4 0 0.81-0.04 1.22-0.12 13.29-2.52 23.32-10.46 25.53-20.22zM464.63 709.74c-2.89-2.13-6.96-1.5-9.09 1.39a6.513 6.513 0 0 0 1.39 9.09c2.98 2.19 7.81 6.53 6.79 11.07-1.03 4.57-7.32 8.81-15.28 10.32a6.495 6.495 0 0 0-5.17 7.6 6.5 6.5 0 0 0 6.38 5.29c0.4 0 0.81-0.04 1.22-0.12 13.3-2.53 23.32-10.46 25.53-20.22 1.15-5.05 1.14-14.94-11.77-24.42zM583.31 691.16c-0.03-4.64-2.03-13.25-15.06-18.81-3.3-1.41-7.12 0.13-8.53 3.43s0.13 7.12 3.43 8.53c2.66 1.14 7.13 3.55 7.16 6.94 0.02 3.04-3.42 7.65-10.05 10.59a6.5 6.5 0 0 0-3.3 8.58 6.516 6.516 0 0 0 5.95 3.87c0.88 0 1.78-0.18 2.63-0.56 10.86-4.83 17.84-13.68 17.77-22.57zM523.42 727.3c-3.3-1.41-7.12 0.13-8.53 3.43-1.41 3.3 0.13 7.12 3.43 8.53 2.66 1.14 7.13 3.55 7.16 6.94 0.02 3.04-3.42 7.65-10.05 10.59a6.5 6.5 0 0 0-3.3 8.58 6.513 6.513 0 0 0 5.94 3.87c0.88 0 1.78-0.18 2.63-0.56 10.86-4.82 17.84-13.68 17.78-22.56-0.04-4.66-2.04-13.27-15.06-18.82zM617.69 682.94c-3.3-1.41-7.12 0.13-8.53 3.43-1.41 3.3 0.13 7.12 3.43 8.53 2.68 1.14 3.66 2.36 3.67 2.9 0.01 1.15-1.79 3.65-5.68 5.38a6.5 6.5 0 0 0-3.3 8.58 6.516 6.516 0 0 0 5.95 3.87c0.88 0 1.78-0.18 2.63-0.56 8.32-3.69 13.45-10.34 13.4-17.35-0.07-8.92-8.12-13.31-11.57-14.78zM581.29 736.19c-3.3-1.41-7.12 0.13-8.53 3.43-1.41 3.3 0.13 7.12 3.43 8.53 2.68 1.14 3.66 2.36 3.67 2.9 0.01 1.15-1.79 3.65-5.68 5.38a6.5 6.5 0 0 0-3.3 8.58 6.516 6.516 0 0 0 5.95 3.87c0.88 0 1.78-0.18 2.63-0.56 8.32-3.69 13.45-10.34 13.4-17.35-0.07-8.91-8.12-13.3-11.57-14.78zM637.73 732.47c-3.3-1.41-7.12 0.13-8.53 3.43-1.41 3.3 0.13 7.12 3.43 8.53 2.68 1.14 3.66 2.36 3.67 2.9 0.01 1.15-1.79 3.65-5.68 5.38a6.5 6.5 0 0 0-3.3 8.58 6.516 6.516 0 0 0 5.95 3.87c0.88 0 1.78-0.18 2.63-0.56 8.32-3.69 13.45-10.34 13.4-17.35-0.07-8.92-8.11-13.31-11.57-14.78zM342.52 622.06c-3.84 0.46-6.57 3.95-6.11 7.79 1.25 10.37-0.49 17.56-4.78 19.74-6.58 3.33-18.49-2.87-26.87-10.72-2.82-2.64-7.25-2.5-9.89 0.32-2.64 2.82-2.5 7.25 0.32 9.89 10.7 10.03 22.23 15.41 32.17 15.41 3.81 0 7.39-0.79 10.6-2.42 13.48-6.83 13.52-24.17 12.35-33.91-0.46-3.83-3.95-6.58-7.79-6.1zM393.91 678.15a7.001 7.001 0 0 0-3.04 9.42c4.76 9.3 5.61 16.65 2.34 20.17-5.02 5.4-18.35 3.7-28.92-0.77-3.56-1.5-7.67 0.16-9.17 3.72a6.99 6.99 0 0 0 3.72 9.17c8.39 3.55 16.45 5.3 23.59 5.3 8.78 0 16.16-2.65 21.03-7.89 10.29-11.07 4.33-27.36-0.13-36.08-1.77-3.44-5.98-4.81-9.42-3.04zM273.04 482.47c0.44 0.02 0.9 0.03 1.38 0.03 8.52 0 23.05-3.68 34.01-25.6 1.98-3.95 0.37-8.76-3.58-10.73-3.95-1.98-8.76-0.37-10.73 3.58-3.94 7.89-10.65 17.21-20.32 16.74-9.69-0.46-19.97-10.49-25.57-24.98-1.59-4.12-6.23-6.17-10.35-4.57-4.12 1.59-6.17 6.23-4.57 10.35 7.96 20.61 23.56 34.42 39.73 35.18z" p-id="8404" fill="#bfbfbf"></path></svg>