<?xml version="1.0" standalone="no"?><!DOCTYPE svg PUBLIC "-//W3C//DTD SVG 1.1//EN" "http://www.w3.org/Graphics/SVG/1.1/DTD/svg11.dtd"><svg t="1592817288337" class="icon" viewBox="0 0 1024 1024" version="1.1" xmlns="http://www.w3.org/2000/svg" p-id="11358" width="16" height="16" xmlns:xlink="http://www.w3.org/1999/xlink"><defs><style type="text/css"></style></defs><path d="M936.37 689.12l-138.55-83.41c22.97-1.83 37.35-3.54 39.23-3.77 8.03-0.97 14.07-7.79 14.07-15.88v-14.13c0-6.55-4-12.44-10.08-14.87l-265.1-105.52c-7.98-6.66-39.66-33.07-86.58-71.74-21.46-17.69-46.22-29.06-71.36-33.24-0.57-0.46-1.15-0.9-1.79-1.28-20.38-12.35-27.85-15.54-32.08-16.94-4.72-1.56-15.37-8.37-33.68-36.46-13.89-21.31-28.02-48.25-41.68-74.29-13.91-26.51-27.04-51.55-39.35-69.66-24.12-35.49-73.69-41.57-110.19-29.22-33.14 11.21-52.73 36.27-51.11 65.39 0.29 5.16 1.36 10.31 3.17 15.28-27.36 30.8-40.36 58.75-40.94 60.03a15.97 15.97 0 0 0 1.32 15.67c2.99 4.39 7.95 7 13.22 7 0.29 0 0.58-0.01 0.88-0.02l57.36-3.14c3.91 26.74 1.3 52.97-1.55 81.33-1.1 10.96-2.23 22.29-3 33.92-0.01 0.16-0.02 0.32-0.02 0.48-0.24 6.6-5.25 162.43 47.72 231.02 43.31 57.06 93.68 96.61 149.7 117.56 28.43 10.63 58.32 16.47 89.31 17.53l-8.46 28.4c-0.91-0.04-1.78-0.04-2.68-0.07-1.46 0.02-2.85 0.12-4.25 0.22-1.35 0.16-2.73 0.29-4.05 0.5-5.31 0.8-10.34 2-15.27 3.38-9.84 2.77-19.32 6.15-28.66 9.76-9.34 3.62-18.54 7.49-27.66 11.5-4.56 2-9.1 4.04-13.63 6.09-4.53 2.03-9.04 4.17-13.58 6.07l-0.02 0.01c-0.23 0.1-0.36 0.35-0.29 0.6 0.08 0.27 0.35 0.42 0.62 0.34 4.82-1.4 9.5-3 14.24-4.51 4.73-1.53 9.46-3.03 14.19-4.5 9.47-2.93 18.98-5.71 28.52-8.21 6.71-1.75 13.44-3.36 20.17-4.71-3.77 2.26-7.46 4.6-11.1 6.99-7.23 4.75-14.27 9.69-21.23 14.71-6.97 5.01-13.82 10.13-20.76 15.1a0.5 0.5 0 0 0-0.16 0.63c0.12 0.25 0.42 0.35 0.67 0.22 7.67-3.82 15.25-7.81 22.87-11.64 7.62-3.84 15.28-7.57 22.99-11.05 7.71-3.46 15.5-6.69 23.28-9.23 3.44-1.11 6.88-2.06 10.19-2.69l-51.62 52.88c-0.17 0.18-0.19 0.46-0.04 0.66 0.17 0.22 0.48 0.26 0.7 0.09L425 812.52c0.32 0.03 0.64 0.04 0.96 0.04 3.05 0 5.96-1.18 8.15-3.21l26.29 11.15c0.18 0.08 0.4 0.04 0.56-0.1 0.2-0.2 0.21-0.52 0.01-0.72l-21.59-22.11 11.02-36.98c10.77-0.52 21.66-1.58 32.66-3.22 14.46-2.15 28.36-5.16 41.57-8.73-1.9 26.06-5.17 54.89-6.71 67.89-1.73 0.29-3.43 0.63-5.12 1.02-5.2 1.19-10.25 2.69-15.18 4.43-9.85 3.49-19.39 7.52-28.71 11.96-4.66 2.23-9.3 4.48-13.86 6.85-4.57 2.38-9.11 4.8-13.61 7.29-8.98 5.03-17.85 10.19-26.5 15.81-0.84 0.55-1.16 1.67-0.7 2.58 0.5 0.99 1.7 1.38 2.69 0.88l0.02-0.01c9.09-4.6 18.23-9.18 27.43-13.56 9.18-4.42 18.44-8.67 27.75-12.7 9.34-3.96 18.72-7.82 28.26-10.91 0.9-0.3 1.8-0.58 2.7-0.87-1.51 0.81-2.99 1.64-4.44 2.52-3.69 2.26-7.2 4.72-10.61 7.26-3.41 2.55-6.73 5.18-9.93 7.92-3.21 2.73-6.37 5.51-9.47 8.32-3.09 2.83-6.14 5.69-9.18 8.54l-9.04 8.56c-1.51 1.41-3.02 2.82-4.55 4.17-1.52 1.38-3.07 2.7-4.64 3.96l-0.03 0.02c-0.78 0.62-0.99 1.74-0.45 2.61 0.58 0.94 1.81 1.23 2.76 0.65 3.67-2.26 7.07-4.79 10.39-7.36 3.32-2.58 6.55-5.23 9.79-7.85 3.21-2.65 6.42-5.29 9.64-7.89 3.21-2.62 6.42-5.21 9.67-7.73 6.51-5.02 13.11-9.88 20.03-13.91 3.44-2.04 6.96-3.86 10.54-5.25 0.9-0.33 1.79-0.7 2.69-0.95l1.34-0.42c0.45-0.12 0.89-0.21 1.34-0.32 0.07-0.02 0.14-0.03 0.21-0.05l-21.47 27.21-13.45 17.19c-4.47 5.75-8.93 11.49-13.32 17.33-0.62 0.82-0.51 2 0.27 2.7 0.82 0.74 2.09 0.66 2.83-0.16l0.01-0.01c4.82-5.4 9.74-10.75 14.65-16.1l14.81-15.99 25.43-27.23c0.03 0 0.05 0.01 0.08 0.01 2.54 0 4.94-0.81 6.91-2.21l29.71 4.37c0.77 0.11 1.58-0.22 2.02-0.93 0.61-0.95 0.33-2.22-0.63-2.82l-25.26-16.07c1.75-14.72 5.67-49.24 7.43-78.26 53.02-18.03 91.55-43.18 104.81-52.5 9.72-6.84 13.56-8.44 16.6-8.8 4.27-0.52 10.96 1 22.02 3.51 3.97 0.9 8.46 1.92 13.6 3.01 43.1 9.21 160.6 35.72 186.43 47.69 29.82 13.82 52.78 6.24 60.06-8.38 5.42-10.86 2.44-26.34-16.32-36.54zM590.41 499.69c1.64-1.94 2.79-4.14 3.6-6.5l53.66 21.36c-3.58 2.36-8.5 4.79-14.5 7.08l-5.01 1.92-0.12 5.37c-0.17 7.26-0.57 14.01-3.62 16.92-2.29 2.18-6.83 3.19-13.51 3.02l-10.57-0.27 2.62 10.25c0.02 0.08 1.77 7.98-2.46 14.48-0.63 0.97-1.38 1.87-2.23 2.72-20.07-1.3-40.33-3.19-60.27-5.83-2.14-0.28-4.25-0.57-6.35-0.85 4.21-6.41 6.82-14.71 7.64-24.7 17.94-5.12 29.69-12.16 29.7-36.45 9.39-0.91 16.59-2.78 21.42-8.52z m28.92 64.75c6.83-0.91 12.15-3.23 16.12-7.02 6.26-5.96 7.88-14.08 8.39-22.86 9.96-4.32 16.49-8.86 20.59-13.35l42.53 16.93c-3.42 2.82-8.41 5.03-13.6 5.03h-10.87l3.23 10.38c2.76 8.87 1.35 18.54-2.84 24.87-21.18 0.09-43.53-0.28-66.32-1.37 1.93-4.5 2.63-8.92 2.77-12.61z m83.55-6.59c8.07-2.23 15.44-7.12 19.94-13.39l40.81 16.25c0.02 0.29 0.05 0.57 0.06 0.86 0.07 4.73-1.72 9.92-4.31 14.56-17.5 0.96-37.36 1.76-58.74 2.11 2.19-6.26 3.03-13.28 2.24-20.39z m74.5 17.18c0.9-2.63 1.57-5.34 1.95-8.08l16.87 6.71c-5.72 0.46-12.02 0.92-18.82 1.37z m-215.64-94.69l17.38 6.92c-0.26 1.05-0.59 1.72-0.94 2.13-2.13 2.53-12.05 3.07-17.98 3.4l-8.26 0.45 0.73 8.24c1.95 21.91-3.18 24.14-23.07 29.21l-5.92 1.51-0.11 6.5c-0.26 17.59-6.1 24.88-11.99 27.91-26.9-3.76-50.43-7.41-70.95-11.24 1.07-5.59 0.66-11.54-0.43-17.78 9.42-0.87 16.67-3.98 22-9.42 6.3-6.42 9.45-15.51 9.56-27.66 11.1-2.11 21.64-5.63 27.94-14.49 4.33-6.1 6.06-13.88 5.24-23.65 7.72-2.4 15.65-5.22 21.74-10.19 19.47 16.16 30.52 25.4 30.72 25.56 1.29 1.1 2.76 1.97 4.34 2.6z m-47.78-38.69c-4.02 2.39-9.7 4.22-17.16 6.48-1.02 0.31-2.04 0.62-3.07 0.94l-6.83 2.1 1.32 7.02c1.61 8.59 1.08 14.83-1.57 18.57-3.6 5.07-11.98 7.25-24.34 9.11l-7.37 1.11 0.59 7.43c0.86 10.87-0.74 18.45-4.76 22.55-3.71 3.79-10.24 5.34-19.97 4.76l-10.79-0.65 2.54 10.51c2.37 9.8 3.24 16.07 2.35 20.69-57.73-12.04-88.42-26.48-102.49-51.51-15.76-28.06-6.77-61.78-2.17-74.97 1.45-4.15 3.34-7.97 5.62-11.34 13.94-20.61 33.84-33.31 57.55-36.74 4.34-0.63 8.72-0.93 13.15-0.93 24.85 0 50.64 9.76 72.45 27.74 17.17 14.14 32.29 26.64 44.95 37.13zM113.64 248.5c3.85-5.73 8.5-12.15 13.98-18.91 2.98 6 5.48 11.9 7.59 17.73l-21.57 1.18z m56.88 147.54c0.74-11 1.83-21.97 2.9-32.58 3.33-33.21 6.72-67.14-1.3-103.39-0.13-0.99-0.35-1.94-0.66-2.85-4.84-20.37-13.34-41.48-27.56-63.62-2.3-3.58-3.62-7.47-3.83-11.25-1.15-20.69 20.19-30.19 29.41-33.31 24.77-8.38 59.03-4.35 73.47 16.9 11.28 16.6 24.01 40.86 37.48 66.54 26.34 50.22 51.45 98.08 78.68 118.22-24.07 7.97-44.85 23.79-59.76 45.83-3.83 5.66-6.97 11.97-9.33 18.74-2.53 7.27-6.05 19.37-7.64 33.86-35.31 15.5-72.34 66.47-89.8 120.51-8.62-23.58-14.95-53.78-18.66-89.56-4.52-43.74-3.5-80.89-3.4-84.04z m542.35 259.02c-4.95-1.05-9.33-2.04-13.2-2.92-29.01-6.57-38.51-7.66-64.1 10.33-11.99 8.44-75.93 51.13-157.24 63.24-46.43 6.91-90.55 2.73-131.15-12.45-48.64-18.19-92.88-52.47-131.57-101.94 3.87-28.66 16.09-60.23 34.05-87.62 12.09-18.43 23.93-30.74 33.81-38.18 1.89 10.27 5.34 20.76 11.05 30.91 29.41 52.37 98.81 66.88 239.28 85.5 48.82 6.47 98.8 8.63 143.76 8.63 23.82 0 46.21-0.61 66.28-1.5 8.26 5.89 12.9 9.22 12.91 9.23 0.35 0.25 0.7 0.48 1.07 0.7l133.56 80.41c-48.89-16.45-164.05-41.25-178.51-44.34z" p-id="11359" fill="#bfbfbf"></path><path d="M183.819179 223.608757a14.17 14.17 0 1 0 20.039056-20.039756 14.17 14.17 0 1 0-20.039056 20.039756Z" p-id="11360" fill="#bfbfbf"></path></svg>