<?xml version="1.0" standalone="no"?><!DOCTYPE svg PUBLIC "-//W3C//DTD SVG 1.1//EN" "http://www.w3.org/Graphics/SVG/1.1/DTD/svg11.dtd"><svg t="1592817241668" class="icon" viewBox="0 0 1024 1024" version="1.1" xmlns="http://www.w3.org/2000/svg" p-id="10375" width="16" height="16" xmlns:xlink="http://www.w3.org/1999/xlink"><defs><style type="text/css"></style></defs><path d="M246.91 256.34m-28.05 0a28.05 28.05 0 1 0 56.1 0 28.05 28.05 0 1 0-56.1 0Z" p-id="10376" fill="#bfbfbf"></path><path d="M104.28 342.35a20.05 20.05 0 0 0 11.84 16.86c6.75 3 14.61 2.05 20.45-2.49 0.13-0.1 18.92-14.33 43.94-19.62 3.46-0.73 6.99 0.48 9.23 3.17 20.63 24.75 28.96 42.91-6.68 184.06-0.08 0.32-0.15 0.64-0.22 0.96-7.43 36.96-7.63 72.25-0.59 104.89 6.6 30.63 19.58 59.07 38.57 84.54 26.64 35.73 64.2 64.91 111.64 86.73 37.53 17.26 80.32 29.2 124.66 34.88v40.99c-31.74 5.37-59.67 23.99-76.98 52.09-5.8 9.42-2.87 21.76 6.55 27.57 9.42 5.8 21.76 2.87 27.57-6.55 13.37-21.69 36.53-34.64 61.97-34.64 25.46 0 48.63 12.96 61.99 34.68 3.78 6.15 10.36 9.54 17.08 9.54 3.58 0 7.21-0.96 10.48-2.98 9.42-5.8 12.36-18.14 6.56-27.57-16.97-27.58-44.17-46.04-75.16-51.82v-38.46c58.5-0.16 123.27-20.05 184.99-57.14 5.18-3.11 10.3-6.34 15.36-9.65 0.18-0.12 0.37-0.23 0.55-0.36 54.82-35.99 101.83-82.94 127.75-128.11 17.83-31.07 32.59-40.36 39.8-43.13 9.1-3.49 15.12-11.8 15.72-21.68 0.63-10.37-4.84-20.19-13.93-25.02-0.98-0.52-2.02-1.06-3.12-1.62 6.17-2.42 12.41-4.91 18.34-7.48 9.69-4.2 16.28-12.97 17.63-23.45 1.35-10.48-2.8-20.63-11.1-27.15-10.49-8.24-24.65-14.46-44.45-19.25 32.23-26.39 52.79-60.31 54-62.34 0.24-0.41 0.47-0.82 0.69-1.24 0.97-1.91 23.62-47.26 20.03-87.19-0.96-10.65-8.19-19.58-18.43-22.75-10.25-3.17-21.29 0.12-28.1 8.39-29.07 35.25-86.24 71.57-152.93 97.17-71.53 27.45-145.04 38.83-201.68 31.23-28.67-3.84-48.42-15.52-64.06-37.87-15.07-21.54-24.56-50.65-34.61-81.47-10.01-30.7-20.35-62.45-37.52-91.84-6.41-10.98-13.71-21.02-21.68-29.91 13.64-11.38 22.34-28.5 22.34-47.61 0-34.19-27.81-62-62-62-1.49 0-2.97 0.05-4.45 0.16C304.82 72.99 286.97 64 267.45 64c-19.57 0-37.42 9.01-48.95 23.89-1.65-0.13-3.31-0.2-4.97-0.2-34.19 0-62 27.81-62 62 0 16.92 6.94 32.73 18.51 44.16-15.09 16.84-25 36.77-26.85 55.75-42.67 33.63-39.08 90.34-38.91 92.75zM342.74 149.7c0 9.35-5.89 17.35-14.15 20.5-3.92-2.43-7.91-4.6-11.95-6.5-38.18-17.94-78.86-16.49-114.54 4.1l-0.51 0.3c-6.12-3.99-9.99-10.88-9.99-18.4 0-12.09 9.84-21.93 21.93-21.93 2.68 0 5.31 0.48 7.8 1.43l18.44 7.03 7.31-18.34c3.35-8.4 11.34-13.82 20.37-13.82 8.98 0 16.96 5.39 20.33 13.72l7.27 17.98 18.21-6.68c2.41-0.88 4.95-1.33 7.55-1.33 12.09 0.01 21.93 9.85 21.93 21.94zM150.8 304.18c3.59-8.43 9.12-16.88 17.62-23.44 8.39-6.47 13.72-16.28 14.62-26.91 1.28-15.04 15.11-37.5 39.07-51.33 16.97-9.79 44.19-18.18 77.47-2.54 17.98 8.45 35.01 25.31 47.95 47.46 15 25.69 24.67 55.36 34.02 84.06 10.99 33.74 21.38 65.6 39.87 92.03 21.99 31.44 51.95 49.3 91.56 54.62 13.73 1.84 27.93 2.71 42.41 2.72 114.04 0.01 246.56-54.09 319.25-116.1-3.49 12.06-7.94 22.57-10.64 28.04-3.76 6.02-37.22 58.04-78.52 70.8-8.95 2.77-15.51 10.73-15.99 20.08-0.61 11.89 8.27 21.92 19.75 23.13 24.51 2.58 42.96 5.85 56.18 10.03-14.85 5.79-27.76 10.78-36.5 16.14-6.93 4.25-11.5 11.65-11.68 19.78-0.23 10.92 7 20.32 17.2 23.13 3.94 1.09 7.69 2.29 11.21 3.54-12.15 10.71-23.72 25.61-34.6 44.57-20 34.85-54.72 71.24-96.26 101.6-15.22 11.12-32.52 19.2-50.95 23.12-0.94 0.2-1.88 0.39-2.82 0.57a184.472 184.472 0 0 1-34.46 3.25c-100.62 0-182.48-81.86-182.48-182.48 0-11.26-9.29-20.35-20.63-20.03-10.91 0.31-19.47 9.59-19.45 20.5 0.12 59.27 23.26 114.97 65.18 156.9 32.52 32.52 73.33 53.72 117.66 61.66-31.1 8.54-61.34 11.75-89.22 9.21-97.12-8.86-181.13-49.06-224.72-107.53-32.58-43.69-42.98-96.54-30.91-157.11 18.44-73.09 25.83-115.32 25.52-145.7-0.36-34.39-11.06-54.19-27.03-73.35-11.77-14.12-30.28-20.53-48.3-16.72-7.62 1.62-14.82 3.84-21.38 6.3z" p-id="10377" fill="#bfbfbf"></path></svg>