<?xml version="1.0" standalone="no"?><!DOCTYPE svg PUBLIC "-//W3C//DTD SVG 1.1//EN" "http://www.w3.org/Graphics/SVG/1.1/DTD/svg11.dtd"><svg t="1592817338884" class="icon" viewBox="0 0 1024 1024" version="1.1" xmlns="http://www.w3.org/2000/svg" p-id="13898" width="16" height="16" xmlns:xlink="http://www.w3.org/1999/xlink"><defs><style type="text/css"></style></defs><path d="M907.44 442.17a20.008 20.008 0 0 0-23.16-18.24c-1.91 0.31-47.05 7.78-74.2 22.45-0.24 0.13-0.47 0.26-0.7 0.4-4.63 2.75-21.93-10.17-35.83-20.55-30.41-22.69-72.05-53.77-136.44-64.13-34.89-5.62-72.93-4.29-113.07 3.92-28.82 5.9-59.41 15.5-91.4 28.65 7.12-13.63 14.72-29.12 22.03-45.71 34.26-77.82 44.47-139.78 30.37-184.16-9.62-30.28-30.02-51.82-60.64-64.02-54.67-21.79-100.92-23.63-137.47-5.46-38.83 19.3-54.74 55.24-60.58 73.71-13.15 15.13-26.79 23.55-86.51 41.74-0.36 0.11-0.71 0.23-1.06 0.36-12.44 4.56-22.15 14.36-27.34 27.59-4.6 11.73-4.99 24.95-1.05 36.27 4.01 11.54 12.19 20.43 23.04 25.03 11.17 4.74 24.15 4.74 38.58 0 36.07-11.85 79.04-23.88 94.49-28.14 20.02 6.87 35.81 12.14 49.42 15.76-53.62 54.67-89.64 110.29-107.25 165.74-16.78 52.83-17.01 105.24-0.69 155.78 22.74 70.39 75.93 127.93 145.94 157.86 44.14 18.87 91.25 30.42 138.63 34.88-0.03 0.43-0.07 0.86-0.07 1.29v43.89l-73.12 32.07c-10.12 4.44-14.72 16.23-10.28 26.35 3.29 7.5 10.63 11.97 18.33 11.97 2.68 0 5.41-0.54 8.02-1.69l85.09-37.31a20.01 20.01 0 0 0 11.97-18.32v-56.16c1.66 0.02 3.33 0.03 4.99 0.03 11.54 0 23.04-0.43 34.47-1.26v61.49l-71.59 54.63c-8.78 6.7-10.47 19.25-3.77 28.03 3.94 5.16 9.89 7.87 15.91 7.87 4.23 0 8.5-1.34 12.12-4.1l79.46-60.63c4.96-3.78 7.87-9.66 7.87-15.9V800.8c0-0.91-0.08-1.79-0.2-2.66 61.61-9.9 119.59-32.24 167.42-66.46 43.98-31.47 77.46-71.19 99.51-118.06 23.85-50.71 33.53-108.39 28.76-171.45z m-64.95 154.4c-19.1 40.61-48.24 75.12-86.59 102.56-50.39 36.05-114 58.04-183.97 63.57-69.73 5.52-139.68-5.71-202.27-32.47-59.37-25.38-104.42-74-123.6-133.37-13.71-42.45-13.46-86.65 0.75-131.38 18.56-58.44 60.99-118.04 126.11-177.15 6.23-5.65 8.25-14.6 5.07-22.39a19.98 19.98 0 0 0-18.5-12.42c-0.27 0-0.54 0.01-0.8 0.02-19.35 0.78-41.23-6.44-84.97-21.5a20.05 20.05 0 0 0-11.73-0.4c-0.56 0.15-56.78 15.37-102.44 30.37-7.26 2.39-10.16 1.31-10.46 1.18-0.13-0.06-0.49-0.21-0.88-1.34-1.56-4.48 0.68-11.47 4.09-13.05 68.76-20.98 87.2-32.76 107.49-57.32 1.8-2.17 3.11-4.71 3.86-7.42 3.12-11.31 13.36-39.11 41.12-52.91 25.93-12.89 61.21-10.6 104.86 6.79 19.21 7.66 31.42 20.4 37.32 38.96 10.89 34.25 1 88-28.63 155.45-23.35 53.16-50.8 95.67-51.07 96.09a19.994 19.994 0 0 0 25.94 28.66c49.99-25.79 96.72-43.25 138.91-51.89 35.39-7.25 68.59-8.46 98.69-3.62 54.7 8.8 90.28 35.36 118.87 56.7 13.14 9.81 24.5 18.28 35.82 23.49 16.03 7.37 30.81 7.25 43.93-0.35 10.38-5.54 25.91-10.16 39.21-13.4 0.62 47.13-8.13 90.28-26.13 128.54z" p-id="13899" fill="#bfbfbf"></path><path d="M321.2 189.82m-24 0a24 24 0 1 0 48 0 24 24 0 1 0-48 0Z" p-id="13900" fill="#bfbfbf"></path><path d="M662.82 445.9c-8.86-6.59-21.39-4.75-27.98 4.12-6.59 8.86-4.75 21.39 4.12 27.98 11.14 8.28 13.08 16.66 12.73 19.11-1.75 0.62-8.01 1.24-19.64-3.57a19.977 19.977 0 0 0-22.63 5.23 19.98 19.98 0 0 0-2.42 23.1c18.39 32.49 11.84 51.59 3.1 61.88-15.31 18.03-49.44 24.74-76.09 14.95-15.9-5.84-34.86-19.41-34.86-50.88 0-11.05-8.95-20-20-20s-20 8.95-20 20c0 21.95 6.02 41.13 17.89 57.01 10.5 14.03 25.43 24.9 43.18 31.42 12.63 4.64 26.43 7 40.34 7 8.13 0 16.3-0.81 24.3-2.43 22.81-4.64 42.6-15.71 55.73-31.18 11.41-13.44 17.69-30.01 18.17-47.93 0.22-8.01-0.7-16.25-2.74-24.69 14.83-2.11 24.97-10.25 30.42-19.85 12.4-21.9 2.47-51.87-23.62-71.27z" p-id="13901" fill="#bfbfbf"></path></svg>