<?xml version="1.0" standalone="no"?><!DOCTYPE svg PUBLIC "-//W3C//DTD SVG 1.1//EN" "http://www.w3.org/Graphics/SVG/1.1/DTD/svg11.dtd"><svg t="1591865100368" class="icon" viewBox="0 0 1024 1024" version="1.1" xmlns="http://www.w3.org/2000/svg" p-id="2117" xmlns:xlink="http://www.w3.org/1999/xlink" width="32" height="32"><defs><style type="text/css"></style></defs><path d="M511.950024 1023.90001c-282.272434 0-511.950005-229.677571-511.950004-511.950005s229.677571-511.950005 511.950004-511.950005C733.628376 0 929.109286 141.386193 998.402519 351.765648c2.499756 7.699248-1.699834 15.898447-9.299092 18.498193s-15.898447-1.699834-18.498193-9.299091C905.21162 162.384142 720.929616 29.097158 511.950024 29.097158 245.776018 29.097158 29.197168 245.676008 29.197168 511.850015s216.57885 482.752856 482.752856 482.752856S994.702881 778.024021 994.702881 511.850015c0-8.099209 6.499365-14.598574 14.598574-14.598575s14.598574 6.499365 14.598574 14.598575c0 282.272434-229.677571 512.049995-511.950005 512.049995z" fill="#fb790f" p-id="2118"></path><path d="M224.678078 510.750122c-4.599551-13.498682-10.099014-26.497412-16.598379-38.996192 66.593497-89.0913 114.988771-185.481887 145.185822-289.17176l35.896494 12.198808c-17.898252 51.394981-38.596231 101.090128-62.093936 148.985451v435.057514h-33.696709v-370.963773c-19.398106 33.99668-42.29587 68.393321-68.693292 102.889952z m301.970511-327.568011h34.696612c0 64.093741-1.399863 120.488234-4.0996 168.983498h244.476125v32.496826H630.338463v301.970511c-1.699834 25.997461 12.998731 38.39625 43.995704 37.196368h44.295674c30.397032 1.299873 47.795332-14.998535 52.194903-48.695245 3.499658-23.697686 6.299385-53.394786 8.399179-88.99131 10.199004 4.19959 21.797871 7.799238 34.696612 10.898936-3.799629 37.896299-7.799238 69.393223-12.198809 94.590763-7.699248 43.695733-34.796602 65.293624-81.192071 64.593692h-51.195c-49.995118 1.199883-74.292745-22.197832-73.092862-70.293136V384.662435h-40.896006c-0.19998 4.19959-0.599941 10.298994-1.199883 18.398204-0.599941 7.499268-1.099893 13.098721-1.299873 16.898349-7.899229 136.986622-63.093838 256.174983-165.48384 357.565082-10.398984-10.398984-19.798067-18.898154-28.097256-25.5975 100.790157-97.190509 153.784982-208.879602 158.984474-335.067279 0.599941-8.29919 1.299873-18.998145 2.199785-32.196856H382.062709v-32.496826h140.886241c2.399766-51.694952 3.699639-107.989454 3.699639-168.983498z m197.680695 121.488136c-30.397032-26.197442-62.193926-51.994922-95.290694-77.392442l20.897959-23.397715c28.497217 19.798067 61.194024 44.695635 98.090421 74.592715l-23.697686 26.197442z" fill="#fb790f" p-id="2119"></path></svg>