<?xml version="1.0" standalone="no"?><!DOCTYPE svg PUBLIC "-//W3C//DTD SVG 1.1//EN" "http://www.w3.org/Graphics/SVG/1.1/DTD/svg11.dtd"><svg t="1592817663011" class="icon" viewBox="0 0 1024 1024" version="1.1" xmlns="http://www.w3.org/2000/svg" p-id="21286" xmlns:xlink="http://www.w3.org/1999/xlink" width="16" height="16"><defs><style type="text/css"></style></defs><path d="M586.007 666.244c-2.542 0-5.132-0.495-7.627-1.562-9.912-4.208-14.52-15.653-10.312-25.575 34.944-82.132 52.663-169.54 52.663-259.822 0-60.042-48.845-108.888-108.878-108.888-60.042 0-108.888 48.845-108.888 108.888 0 90.283 17.719 177.69 52.663 259.822 4.208 9.921-0.4 21.366-10.312 25.575-9.95 4.228-21.366-0.419-25.584-10.302-37-86.988-55.767-179.537-55.767-275.095 0-81.542 66.346-147.888 147.888-147.888s147.878 66.346 147.878 147.888c0 95.558-18.767 188.106-55.767 275.095-3.161 7.408-10.369 11.864-17.957 11.864z" fill="#bfbfbf" p-id="21287"></path><path d="M394.158 700.94c-4.275 0-8.579-1.39-12.178-4.285-68.24-54.596-125.227-121.075-169.378-197.571-19.757-34.22-25.003-74.077-14.787-112.22s34.696-70.04 68.916-89.788c22.309-12.892 47.655-19.748 73.277-19.843h0.067c10.74 0 19.462 8.684 19.5 19.424 0.038 10.778-8.665 19.538-19.433 19.576-18.824 0.057-37.467 5.123-53.901 14.625-25.213 14.549-43.228 38.01-50.759 66.098-7.522 28.088-3.647 57.434 10.902 82.627 41.714 72.268 95.529 135.072 159.97 186.64 8.407 6.722 9.769 18.986 3.037 27.403-3.845 4.819-9.52 7.314-15.233 7.314zM629.549 708.176a19.49 19.49 0 0 1-15.444-7.579c-6.579-8.531-5.008-20.776 3.513-27.346 68.393-52.844 125.217-117.99 168.902-193.667 14.549-25.194 18.424-54.539 10.893-82.627-7.522-28.088-25.546-51.549-50.74-66.098-33.554-19.386-73.782-19.652-107.64-0.762-9.407 5.237-21.281 1.885-26.527-7.522-5.256-9.407-1.885-21.271 7.522-26.527 45.275-25.251 101.271-24.87 146.145 1.028 34.22 19.748 58.69 51.645 68.917 89.788 10.217 38.143 4.97 78-14.787 112.22-46.237 80.095-106.413 149.069-178.843 205.017a19.422 19.422 0 0 1-11.911 4.075z" fill="#bfbfbf" p-id="21288"></path><path d="M730.095 707.681c-6.989 0-13.74-3.751-17.243-10.359-5.046-9.502-1.438-21.309 8.074-26.355 47.903-25.441 92.844-56.938 133.558-93.615 21.623-19.462 34.373-46.179 35.896-75.22 1.523-29.021-8.36-56.919-27.831-78.552-14.882-16.51-34.125-27.955-55.653-33.078-10.483-2.495-16.948-13.006-14.454-23.48 2.495-10.493 13.073-16.967 23.48-14.454 29.26 6.97 55.406 22.49 75.601 44.922 54.568 60.595 49.664 154.286-10.94 208.844-43.085 38.81-90.645 72.135-141.356 99.062a19.272 19.272 0 0 1-9.132 2.285zM351.359 734.932c-2.495 0-5.027-0.476-7.474-1.485-73.468-30.545-141.023-73.296-200.77-127.112-29.364-26.432-46.674-62.708-48.74-102.146s11.359-77.333 37.8-106.698c22.928-25.46 54.158-42.256 87.931-47.303 10.655-1.466 20.585 5.751 22.176 16.415 1.59 10.645-5.76 20.566-16.406 22.166-24.851 3.713-47.836 16.072-64.718 34.811-19.471 21.633-29.355 49.531-27.841 78.552 1.523 29.041 14.273 55.758 35.896 75.22 56.462 50.845 120.256 91.254 189.639 120.066 9.94 4.132 14.654 15.558 10.521 25.499-3.113 7.501-10.368 12.015-18.014 12.015z" fill="#bfbfbf" p-id="21289"></path><path d="M511.854 815.56c-55.196 0-129.549-28.126-173.977-44.922-10.178-3.866-18.672-7.084-24.775-9.122a19.489 19.489 0 0 1-13.311-17.691c-0.333-8.074 4.361-15.539 11.797-18.719 27.412-11.75 48.693-31.726 71.211-52.882 34.753-32.64 70.688-66.384 129.054-66.384s94.301 33.744 129.045 66.384c22.518 21.157 43.789 41.133 71.211 52.882 7.436 3.18 12.13 10.645 11.797 18.719a19.489 19.489 0 0 1-13.311 17.691c-6.103 2.038-14.596 5.256-24.784 9.122-44.418 16.795-118.771 44.922-173.957 44.922z m-147.003-76.439c42.38 15.863 103.679 37.438 147.002 37.438 43.313 0 104.613-21.576 146.993-37.438-16.253-11.807-30.593-25.27-44.646-38.467-31.887-29.955-59.424-55.815-102.346-55.815s-70.469 25.86-102.356 55.815c-14.054 13.197-28.394 26.66-44.647 38.467z" fill="#bfbfbf" p-id="21290"></path></svg>