<?xml version="1.0" standalone="no"?><!DOCTYPE svg PUBLIC "-//W3C//DTD SVG 1.1//EN" "http://www.w3.org/Graphics/SVG/1.1/DTD/svg11.dtd"><svg t="1592223269201" class="icon" viewBox="0 0 1024 1024" version="1.1" xmlns="http://www.w3.org/2000/svg" p-id="4486" xmlns:xlink="http://www.w3.org/1999/xlink" width="128" height="128"><defs><style type="text/css"></style></defs><path d="M259.554391 383.538768c-35.002901 0-63.422546 29.436291-63.422546 65.789559 0 36.324025 28.419645 65.765476 63.422546 65.765477 35.051067 0 63.420826-29.441451 63.420825-65.765477-0.00172-36.351548-28.369759-65.789559-63.420825-65.789559z m253.690183 0c-35.047627 0-63.422546 29.436291-63.422546 65.789559 0 36.324025 28.374919 65.765476 63.422546 65.765477 34.999461 0 63.37782-29.441451 63.377821-65.765477 0-36.351548-28.37836-65.789559-63.377821-65.789559z m253.645458 0c-34.999461 0-63.424266 29.436291-63.424266 65.789559 0 36.324025 28.424805 65.765476 63.424266 65.765477 34.99602 0 63.424266-29.441451 63.424266-65.765477 0-36.351548-28.429966-65.789559-63.424266-65.789559z m126.841652-297.454131H132.755745c-70.055689 0-126.843372 58.919027-126.843372 131.585999v430.438665c0 72.642889 58.033117 139.614235 129.688605 139.614235h193.310695c33.657694 35.895692 173.11367 165.097476 173.11367 165.097476 6.189328 6.45252 16.20785 6.45252 22.386856 0 0 0 102.113584-100.587755 168.629074-165.097476h197.798732c71.657207 0 129.690325-66.971346 129.690325-139.614235V217.670636c0-72.666972-56.792844-131.586-126.798646-131.585999z m63.37438 562.024664c0 36.315424-30.461538 74.438792-66.264339 74.438792H696.330321c-23.580685 0-44.770273 24.206842-44.770272 24.206842l-136.571178 126.537174-136.566018-126.537174s-25.980382-24.206842-48.265746-24.206842h-194.556129c-35.80108 0-66.267779-38.123368-66.267779-74.438792V217.670636c0-36.346388 28.369759-65.784399 63.422546-65.784399h760.975939c35.011502 0 63.37438 29.438011 63.37438 65.784399v430.438665z m0 0" p-id="4487" fill="#8a8a8a"></path></svg>