<?xml version="1.0" standalone="no"?><!DOCTYPE svg PUBLIC "-//W3C//DTD SVG 1.1//EN" "http://www.w3.org/Graphics/SVG/1.1/DTD/svg11.dtd"><svg t="1592901804302" class="icon" viewBox="0 0 1028 1024" version="1.1" xmlns="http://www.w3.org/2000/svg" p-id="2386" width="16.0625" height="16" xmlns:xlink="http://www.w3.org/1999/xlink"><defs><style type="text/css"></style></defs><path d="M69.588 512.277c0-118.89000001 46.078-230.659 129.73-314.73S394.334 67.12 512.778 67.12s229.744 46.327 313.427 130.398 129.73 195.82 129.73 314.73-46.078 230.659-129.73 314.72S631.19 957.397 512.817 957.397 283.04 911.078 199.35800001 826.97s-129.77-195.8-129.77000001-314.692z m822.784 0c0-101.972-39.49400001-197.809-111.222-269.865s-166.997-111.7-268.37300001-111.7-196.695 39.653-268.33499999 111.67S133.22 410.246 133.22 512.248s39.484 197.809 111.222 269.865 166.998 111.69999999 268.374 111.67c101.375-0.03 196.665-39.654 268.303-111.67S892.372 614.22 892.372 512.277z m-347.8 222.585L544.572 544.073 735.36 544.073c17.561-0.76 31.18-15.613 30.419-33.173-0.714-16.495-13.924-29.704-30.419-30.419l-190.787 0L544.573 289.703c-0.761-17.56-15.614-31.179-33.174-30.419-16.494 0.715-29.703 13.924-30.418 30.41999999L480.981 480.48l-190.788 0c-17.56 0.761-31.179 15.614-30.419 33.174 0.715 16.494 13.925 29.703 30.42 30.418L480.98 544.072l0 190.788c-0.762 17.56 12.857 32.41299999 30.418 33.173 17.561 0.762 32.414-12.858 33.174-30.419a31.683 31.683 0 0 0 0-2.753z" p-id="2387" fill="#8a8a8a"></path></svg>