<?xml version="1.0" standalone="no"?><!DOCTYPE svg PUBLIC "-//W3C//DTD SVG 1.1//EN" "http://www.w3.org/Graphics/SVG/1.1/DTD/svg11.dtd"><svg t="1592648839836" class="icon" viewBox="0 0 1024 1024" version="1.1" xmlns="http://www.w3.org/2000/svg" p-id="2277" xmlns:xlink="http://www.w3.org/1999/xlink" width="200" height="200"><defs><style type="text/css"></style></defs><path d="M511.988744 960.243931c-247.155053 0-448.233698-201.079668-448.233698-448.255187 0-247.155053 201.079668-448.233698 448.233698-448.233698 247.175519 0 448.255187 201.079668 448.255187 448.233698C960.243931 759.165286 759.165286 960.243931 511.988744 960.243931zM511.988744 96.294137c-229.211379 0-415.69563 186.483228-415.69563 415.69563 0 229.232868 186.483228 415.716096 415.69563 415.716096 229.232868 0 415.716096-186.483228 415.716096-415.716096C927.705863 282.777365 741.222635 96.294137 511.988744 96.294137z" p-id="2278" fill="#FEB82B"></path><path d="M475.277634 681.144328c-4.173043 0-8.325619-1.589195-11.502985-4.76656L332.750523 545.354666c-6.354731-6.354731-6.354731-16.650215 0-23.00597s16.650215-6.354731 23.00597 0L486.780619 653.371798c6.354731 6.354731 6.354731 16.650215 0 23.00597C483.60223 679.555134 479.450676 681.144328 475.277634 681.144328z" p-id="2279" fill="#FEB82B"></path><path d="M475.277634 681.144328c-4.173043 0-8.325619-1.589195-11.502985-4.76656-6.354731-6.355755-6.354731-16.650215 0-23.00597l278.845823-278.845823c6.354731-6.354731 16.650215-6.354731 23.00597 0 6.354731 6.354731 6.354731 16.650215 0 23.00597L486.780619 676.377768C483.60223 679.555134 479.450676 681.144328 475.277634 681.144328z" p-id="2280" fill="#FEB82B"></path></svg>