<?xml version="1.0" standalone="no"?><!DOCTYPE svg PUBLIC "-//W3C//DTD SVG 1.1//EN" "http://www.w3.org/Graphics/SVG/1.1/DTD/svg11.dtd"><svg t="1592711030960" class="icon" viewBox="0 0 1024 1024" version="1.1" xmlns="http://www.w3.org/2000/svg" p-id="9306" width="32" height="32" xmlns:xlink="http://www.w3.org/1999/xlink"><defs><style type="text/css"></style></defs><path d="M846.4 240H177.6v544h668.8V240z m-32 32v368L648 475.2 579.2 544l-176-177.6-193.6 192V272h604.8zM209.6 752V580.8l193.6-193.6 177.6 177.6 68.8-68.8L816 662.4V752H209.6z" fill="#8a8a8a" p-id="9307"></path><path d="M699.2 443.2c30.4 0 56-25.6 56-56s-25.6-56-56-56-56 25.6-56 56 24 56 56 56z m40-56c0 22.4-17.6 40-40 40s-40-17.6-40-40 17.6-40 40-40 40 17.6 40 40z" fill="#8a8a8a" p-id="9308"></path></svg>