<?xml version="1.0" standalone="no"?><!DOCTYPE svg PUBLIC "-//W3C//DTD SVG 1.1//EN" "http://www.w3.org/Graphics/SVG/1.1/DTD/svg11.dtd"><svg t="1592904409958" class="icon" viewBox="0 0 1024 1024" version="1.1" xmlns="http://www.w3.org/2000/svg" p-id="11254" width="16" height="16" xmlns:xlink="http://www.w3.org/1999/xlink"><defs><style type="text/css"></style></defs><path d="M870.4 51.2H153.6c-56.32 0-102.4 46.08-102.4 102.4v716.8c0 56.32 46.08 102.4 102.4 102.4h716.8c56.32 0 102.4-46.08 102.4-102.4V153.6c0-56.32-46.08-102.4-102.4-102.4z m81.92 819.2c0 45.056-36.864 81.92-81.92 81.92H153.6c-45.056 0-81.92-36.864-81.92-81.92V153.6c0-45.056 36.864-81.92 81.92-81.92h716.8c45.056 0 81.92 36.864 81.92 81.92v716.8z" fill="#bfbfbf" p-id="11255"></path><path d="M711.68 501.76h-189.44V312.32c0-3.072-2.048-5.12-5.12-5.12h-10.24c-3.072 0-5.12 2.048-5.12 5.12v189.44H312.32c-3.072 0-5.12 2.048-5.12 5.12v10.24c0 3.072 2.048 5.12 5.12 5.12h189.44v189.44c0 3.072 2.048 5.12 5.12 5.12h10.24c3.072 0 5.12-2.048 5.12-5.12v-189.44h189.44c3.072 0 5.12-2.048 5.12-5.12v-10.24c0-3.072-2.048-5.12-5.12-5.12z" fill="#bfbfbf" p-id="11256"></path></svg>