<?xml version="1.0" standalone="no"?><!DOCTYPE svg PUBLIC "-//W3C//DTD SVG 1.1//EN" "http://www.w3.org/Graphics/SVG/1.1/DTD/svg11.dtd"><svg t="1592464577818" class="icon" viewBox="0 0 1024 1024" version="1.1" xmlns="http://www.w3.org/2000/svg" p-id="19140" xmlns:xlink="http://www.w3.org/1999/xlink" width="32" height="32"><defs><style type="text/css"></style></defs><path d="M932.396341 597.378625 969.632705 560.142262 875.027467 560.142262 912.263831 597.378625 912.263831 478.127569 875.027467 515.363933 969.632705 515.363933C990.19778 515.363933 1006.869068 498.692636 1006.869068 478.127569L1006.869068 472.674304C1005.144785 197.921215 789.233817 0 508.913703 0 226.875213 0 9.741866 200.968676 9.310619 478.069611 9.278579 498.657299 25.959227 515.363933 46.546938 515.363933L125.811582 515.363933 125.445913 440.892993 46.180663 441.671438 46.546332 478.906014 83.782696 478.906014C9.309968 478.906219 9.309968 478.906219 9.309968 478.907988 9.309947 481.679881 9.309947 481.679881 9.309931 483.921827 9.309889 489.451911 9.309889 489.451911 9.309831 497.307574 9.309694 515.810807 9.309694 515.810807 9.30953 538.044714 9.3092 582.569221 9.3092 582.569221 9.309091 597.378346 9.308939 617.943543 25.980271 634.614989 46.545455 634.614989L141.150692 634.614989C161.715768 634.614989 178.387056 617.94371 178.387056 597.378625L178.387056 478.127569C178.387056 457.562484 161.715768 440.891206 141.150692 440.891206L125.811582 440.891206 125.811582 515.363933 141.150692 515.363933 141.150692 478.127569 103.914329 478.127569 103.914329 597.378625 141.150692 560.142262 46.545455 560.142262 83.781818 597.378904C83.781928 582.569779 83.781928 582.569779 83.782256 538.142385 83.782421 515.811365 83.782421 515.811365 83.782558 497.308132 83.782617 489.45247 83.782617 489.45247 83.782658 483.922385 83.782675 481.68044 83.782675 481.68044 83.782686 480.19402 83.782696 478.907113 9.309968 478.908323 9.309968 478.908323 9.309968 499.614031 26.204973 516.343938 46.912001 516.140572L126.177251 515.362127C175.580166 514.876956 175.21688 440.891206 125.811582 440.891206L46.546938 440.891206 83.783256 478.185509C84.148519 243.482792 266.752706 74.472727 508.913703 74.472727 749.565092 74.472727 930.939392 240.734878 932.397075 472.908074L932.396341 478.127569 969.632705 478.127569 969.632705 440.891206 875.027467 440.891206C854.462391 440.891206 837.791104 457.562484 837.791104 478.127569L837.791104 597.378625C837.791104 617.94371 854.462391 634.614989 875.027467 634.614989L969.632705 634.614989C990.19778 634.614989 1006.869068 617.94371 1006.869068 597.378625L1006.869068 472.674304 932.396341 472.674304 932.396341 597.378625ZM865.56435 992.105435 902.415563 949.527273 109.170097 949.527273 146.021835 992.101823C165.988475 854.26364 231.144161 790.988763 392.56444 790.988763L619.022474 790.988763C780.330403 790.988763 845.593358 854.332621 865.56435 992.105435ZM392.56444 716.516035C192.198353 716.516035 97.349153 808.627274 72.318359 981.42545 69.0656 1003.880616 86.48056 1024 109.170097 1024L902.415563 1024C925.106574 1024 942.521953 1003.878139 939.266778 981.421838 914.227706 808.686127 819.265177 716.516035 619.022474 716.516035L392.56444 716.516035ZM499.884375 671.592578C605.657136 671.592578 692.804243 589.118464 698.288193 484.324911L623.917229 480.433003C620.506078 545.617157 566.085232 597.119851 499.884375 597.119851 434.306936 597.119851 380.192476 546.549239 375.949735 482.095625L301.637835 486.987311C308.459527 590.619071 395.107404 671.592578 499.884375 671.592578ZM376.030148 475.826995C376.030148 407.831161 431.586529 352.61628 500.233203 352.61628 568.879875 352.61628 624.436256 407.831161 624.436256 475.826995 624.436256 478.010554 624.37937 480.185567 624.266058 482.350862L698.63702 486.242769C698.818154 482.781445 698.908983 479.308688 698.908983 475.826995 698.908983 366.597865 609.907587 278.143553 500.233203 278.143553 390.558817 278.143553 301.557421 366.597865 301.557421 475.826995 301.557421 480.202342 301.700859 484.563391 301.986661 488.905169L376.298563 484.013484C376.119927 481.299735 376.030148 478.570124 376.030148 475.826995Z" p-id="19141" fill="#1296db"></path></svg>