<?xml version="1.0" standalone="no"?><!DOCTYPE svg PUBLIC "-//W3C//DTD SVG 1.1//EN" "http://www.w3.org/Graphics/SVG/1.1/DTD/svg11.dtd"><svg t="1592465434924" class="icon" viewBox="0 0 1024 1024" version="1.1" xmlns="http://www.w3.org/2000/svg" p-id="23739" xmlns:xlink="http://www.w3.org/1999/xlink" width="32" height="32"><defs><style type="text/css"></style></defs><path d="M818.5 363.9c-16.3 0-29.5 13.2-29.5 29.5v414H237.6V216.2h438.5c16.3 0 29.5-13.3 29.5-29.5 0-16.3-13.2-29.5-29.5-29.5H210.7c-17.8 0-32.3 14-32.3 31.3v646.8c0 17.3 14.5 31.3 32.3 31.3h605c17.8 0 32.3-14 32.3-31.3V393.4c0-16.3-13.2-29.5-29.5-29.5z" fill="#1296db" p-id="23740"></path><path d="M892.6 141.7c-4.8-4.8-11.4-7.2-18.4-7.2-9.9 0-20.8 4.6-29.5 13.3l-232.9 233c-15 14.9-17.7 36.4-6.1 48 4.8 4.8 11.3 7.2 18.4 7.2 9.9 0 20.8-4.6 29.5-13.3l232.9-232.9c14.9-15 17.7-36.6 6.1-48.1zM510.1 393.9H318.5c-12.4 0-22.4 13.1-22.5 29.3 0 16.2 10.1 29.3 22.5 29.3H510c12.4 0 22.5-13.1 22.5-29.3 0-16.2-10-29.3-22.4-29.3zM296.1 639.8c0 16.2 9.7 29.3 21.8 29.3H688c12 0 21.8-13.1 21.8-29.3 0-16.2-9.8-29.4-21.8-29.4H317.9c-12 0.1-21.8 13.2-21.8 29.4z" fill="#1296db" p-id="23741"></path></svg>