<?xml version="1.0" standalone="no"?><!DOCTYPE svg PUBLIC "-//W3C//DTD SVG 1.1//EN" "http://www.w3.org/Graphics/SVG/1.1/DTD/svg11.dtd"><svg t="1592038570634" class="icon" viewBox="0 0 1024 1024" version="1.1" xmlns="http://www.w3.org/2000/svg" p-id="1298" xmlns:xlink="http://www.w3.org/1999/xlink" width="32" height="32"><defs><style type="text/css"></style></defs><path d="M512.511 73.826l-127.582 174.534-215.361 23.476 86.757 196.988-86.757 198.008 215.361 23.476 127.582 174.534 127.583-174.534 214.34-23.476-86.757-198.008 86.757-196.988-214.34-23.476-127.583-174.534zM621.722 596.407v39.805h-219.442c0-10.207 1.020-19.393 5.103-28.579 5.103-15.309 14.289-29.599 26.538-43.888 13.268-14.289 30.621-31.641 54.095-50.013 35.723-29.599 60.219-53.075 72.468-70.426 13.268-17.351 19.393-33.682 19.393-48.992 0-16.331-6.124-29.599-17.351-40.827-11.227-11.227-26.538-16.331-44.909-16.331-20.413 0-35.723 5.103-47.972 17.351-11.227 11.228-17.351 27.558-17.351 47.972l-41.847-4.083c3.062-30.621 13.268-55.117 32.661-71.446 18.372-16.331 43.888-24.496 74.509-24.496 32.661 0 57.157 9.187 75.529 26.538 19.393 18.372 28.579 39.805 28.579 66.343 0 13.268-3.062 25.517-8.165 38.785-6.124 13.268-14.289 26.538-27.558 40.827-12.248 14.289-33.682 33.682-62.261 58.178-24.496 20.413-40.827 34.703-46.95 41.847-7.145 7.145-13.268 14.289-17.351 21.434h162.286z" p-id="1299" fill="#fb790f"></path></svg>