<?xml version="1.0" standalone="no"?><!DOCTYPE svg PUBLIC "-//W3C//DTD SVG 1.1//EN" "http://www.w3.org/Graphics/SVG/1.1/DTD/svg11.dtd"><svg t="1592038445802" class="icon" viewBox="0 0 1024 1024" version="1.1" xmlns="http://www.w3.org/2000/svg" p-id="563" xmlns:xlink="http://www.w3.org/1999/xlink" width="32" height="32"><defs><style type="text/css"></style></defs><path d="M409.26 550.671l42.808-4.282c0 21.404 8.561 34.247 21.404 47.089 8.561 8.561 25.686 12.843 38.527 12.843 21.404 0 38.527-4.282 51.37-21.404 12.843-12.843 21.404-34.247 21.404-55.651 0-25.686-8.561-42.808-21.404-55.651-12.843-12.843-29.966-21.404-51.37-21.404-12.843 0-21.404 4.282-34.247 8.561-8.561 8.561-17.123 12.843-25.686 25.686l-38.527-8.561 34.247-166.953h162.671v38.528h-132.706l-17.123 89.898c21.404-17.123 42.808-21.404 64.213-21.404 29.965 0 51.37 8.561 72.774 29.966 17.123 17.123 29.966 42.808 29.966 77.055 0 29.965-8.561 55.651-25.685 77.055-21.404 25.686-51.37 38.528-89.898 38.528-29.966 0-51.37-8.561-72.774-25.686-17.123-17.123-29.966-38.528-29.966-64.213zM512 75.496l-128.425 175.514-214.042 21.404 85.617 196.919-85.617 196.919 214.042 25.685 128.425 171.234 128.425-171.234 214.042-25.685-89.898-196.919 89.898-196.919-214.042-21.404-128.425-175.514z" p-id="564" fill="#fb790f"></path></svg>