<?xml version="1.0" standalone="no"?><!DOCTYPE svg PUBLIC "-//W3C//DTD SVG 1.1//EN" "http://www.w3.org/Graphics/SVG/1.1/DTD/svg11.dtd"><svg t="1592041367845" class="icon" viewBox="0 0 1863 1024" version="1.1" xmlns="http://www.w3.org/2000/svg" p-id="1996" xmlns:xlink="http://www.w3.org/1999/xlink" width="232.875" height="128"><defs><style type="text/css"></style></defs><path d="M1618.6 436.257c-12.368 14.725-312.755 364.585-693.244 364.585s-680.285-349.86-693.244-364.585l-25.915-31.216 25.915-30.628c12.958-14.725 312.755-364.585 693.244-364.585s680.873 349.86 693.244 364.585l26.505 30.628-26.505 31.216zM925.354 84.629c-177.286 0-320.411 143.125-320.411 320.411s143.125 321.001 320.411 321.001c177.287 0 321.001-143.713 321.001-321.001 0-177.287-143.713-320.411-321.001-320.411v0zM925.354 192.414c-117.209 0-212.626 95.417-212.626 212.626 0 117.798 95.417 213.215 212.626 213.215 117.798 0 213.215-95.417 213.215-213.215 0-17.079-2.355-33.573-5.889-49.476l-169.629 174.931c-8.246 8.247-19.437 12.368-30.039 12.368-11.191 0-22.381-4.122-30.628-12.368l-104.252-111.319c-17.079-16.492-17.079-43.586 0-60.667 16.492-16.492 43.586-16.492 60.667 0l74.213 81.281 159.617-166.095c-38.873-49.476-98.95-81.281-167.273-81.281v0z" p-id="1997" fill="#fb790f"></path></svg>